<svg width="21" height="22" viewBox="0 0 21 22" fill="none" xmlns="http://www.w3.org/2000/svg">
<g id="crucified-pose" clip-path="url(#clip0_1_572)">
<g id="Group">
<g id="Group_2">
<path id="Vector" d="M10.3134 4.25966C11.2542 4.25966 12.0168 3.49706 12.0168 2.55634C12.0168 1.61563 11.2542 0.853027 10.3134 0.853027C9.37273 0.853027 8.61013 1.61563 8.61013 2.55634C8.61013 3.49706 9.37273 4.25966 10.3134 4.25966Z" fill="white"/>
<path id="Vector_2" d="M17.1268 4.91545C15.2596 4.91545 13.3909 4.91545 11.524 4.91545C10.8056 4.44754 9.78842 4.44607 9.07739 4.91545C7.14195 4.91545 5.20578 4.91545 3.27034 4.91545C2.17245 4.91545 2.17245 6.61766 3.27034 6.61766C4.92856 6.61766 6.58677 6.61766 8.24498 6.61766C8.24498 8.24397 8.24498 9.87028 8.24498 11.497C8.24498 11.538 8.24902 11.5773 8.25085 11.618C8.25012 11.6374 8.24535 11.6539 8.24535 11.6737C8.24535 14.4995 8.24022 17.3253 8.12361 20.1492C8.0719 21.4055 10.0187 21.4004 10.0704 20.1492C10.1621 17.9358 10.1845 15.7213 10.19 13.5065C10.2824 13.5123 10.3748 13.5131 10.4668 13.5072C10.4727 15.7217 10.495 17.9362 10.5864 20.1492C10.6381 21.4004 12.5845 21.4055 12.5332 20.1492C12.4165 17.3253 12.4114 14.4995 12.4114 11.6737C12.4114 11.5872 12.4008 11.5069 12.3828 11.4321C12.3828 9.82738 12.3828 8.2227 12.3828 6.61766C13.9644 6.61766 15.5471 6.61766 17.1275 6.61766C18.2247 6.61766 18.2247 4.91545 17.1268 4.91545Z" fill="white"/>
</g>
</g>
</g>
<defs>
<clipPath id="clip0_1_572">
<rect width="20.2366" height="20.2366" fill="white" transform="translate(0.080307 0.853027)"/>
</clipPath>
</defs>
</svg>
