<svg width="24" height="24" viewBox="0 0 24 24" fill="none" xmlns="http://www.w3.org/2000/svg">
<g id="crucified-pose" clip-path="url(#clip0_1_783)">
<g id="Group">
<g id="Group_2">
<path id="Vector" d="M12.0625 4.29084C13.1517 4.29084 14.0346 3.40791 14.0346 2.31876C14.0346 1.22961 13.1517 0.34668 12.0625 0.34668C10.9734 0.34668 10.0905 1.22961 10.0905 2.31876C10.0905 3.40791 10.9734 4.29084 12.0625 4.29084Z" fill="white"/>
<path id="Vector_2" d="M19.951 5.05001C17.7891 5.05001 15.6256 5.05001 13.4641 5.05001C12.6324 4.50827 11.4547 4.50657 10.6315 5.05001C8.39065 5.05001 6.14898 5.05001 3.90815 5.05001C2.63702 5.05001 2.63702 7.02081 3.90815 7.02081C5.82801 7.02081 7.74787 7.02081 9.66773 7.02081C9.66773 8.90373 9.66773 10.7867 9.66773 12.67C9.66773 12.7176 9.6724 12.763 9.67452 12.8101C9.67367 12.8326 9.66815 12.8517 9.66815 12.8746C9.66815 16.1463 9.66221 19.418 9.5272 22.6875C9.46734 24.142 11.7213 24.1361 11.7812 22.6875C11.8873 20.1248 11.9132 17.5609 11.9196 14.9966C12.0266 15.0034 12.1336 15.0042 12.2401 14.9974C12.2469 17.5614 12.2728 20.1253 12.3785 22.6875C12.4384 24.1361 14.692 24.142 14.6325 22.6875C14.4975 19.418 14.4916 16.1463 14.4916 12.8746C14.4916 12.7744 14.4793 12.6815 14.4585 12.5949C14.4585 10.737 14.4585 8.87911 14.4585 7.02081C16.2896 7.02081 18.122 7.02081 19.9518 7.02081C21.2221 7.02081 21.2221 5.05001 19.951 5.05001Z" fill="white"/>
</g>
</g>
</g>
<defs>
<clipPath id="clip0_1_783">
<rect width="23.4298" height="23.4298" fill="white" transform="translate(0.214813 0.34668)"/>
</clipPath>
</defs>
</svg>
