<svg width="40" height="40" viewBox="0 0 40 40" fill="none" xmlns="http://www.w3.org/2000/svg">
<g id="crucified-pose" clip-path="url(#clip0_1_329)">
<g id="Group">
<g id="Group_2">
<path id="Vector" d="M20.2269 6.73359C22.0863 6.73359 23.5937 5.22623 23.5937 3.3668C23.5937 1.50737 22.0863 0 20.2269 0C18.3675 0 16.8601 1.50737 16.8601 3.3668C16.8601 5.22623 18.3675 6.73359 20.2269 6.73359Z" fill="white"/>
<path id="Vector_2" d="M33.6941 8.03019C30.0033 8.03019 26.3096 8.03019 22.6195 8.03019C21.1996 7.10532 19.1889 7.10242 17.7835 8.03019C13.9579 8.03019 10.1309 8.03019 6.30525 8.03019C4.13513 8.03019 4.13513 11.3948 6.30525 11.3948C9.58289 11.3948 12.8605 11.3948 16.1382 11.3948C16.1382 14.6094 16.1382 17.824 16.1382 21.0393C16.1382 21.1205 16.1461 21.198 16.1498 21.2785C16.1483 21.3169 16.1389 21.3495 16.1389 21.3887C16.1389 26.9741 16.1288 32.5596 15.8983 38.1415C15.7961 40.6247 19.6441 40.6145 19.7463 38.1415C19.9275 33.7664 19.9718 29.3892 19.9826 25.0113C20.1653 25.0229 20.3479 25.0244 20.5299 25.0128C20.5415 29.39 20.5857 33.7672 20.7662 38.1415C20.8684 40.6145 24.7157 40.6247 24.6142 38.1415C24.3837 32.5596 24.3736 26.9741 24.3736 21.3887C24.3736 21.2176 24.3526 21.0589 24.3171 20.911C24.3171 17.7392 24.3171 14.5674 24.3171 11.3948C27.4432 11.3948 30.5715 11.3948 33.6955 11.3948C35.8642 11.3948 35.8642 8.03019 33.6941 8.03019Z" fill="white"/>
</g>
</g>
</g>
<defs>
<clipPath id="clip0_1_329">
<rect width="40" height="40" fill="white"/>
</clipPath>
</defs>
</svg>
