<svg width="22" height="22" viewBox="0 0 22 22" fill="none" xmlns="http://www.w3.org/2000/svg">
<g id="dancer-motion" clip-path="url(#clip0_1_298)">
<g id="Group">
<g id="Group_2">
<path id="Vector" d="M18.9945 7.91828C16.8118 9.0781 14.6393 10.2758 12.5169 11.5493C11.7622 10.8009 11.1367 10.2052 10.9755 9.49684C10.9844 9.45453 10.9476 9.01739 10.9498 8.95557C10.9582 8.73332 10.9693 8.51107 10.9928 8.28956C11.0609 7.66586 11.1735 7.04621 11.2751 6.42656C11.4399 5.4165 11.0101 4.4116 9.94707 4.12679C9.56917 4.0256 9.13903 4.06387 8.7523 4.2129C8.611 4.13562 8.44873 4.0819 8.26364 4.0613C6.7009 3.88799 5.16687 3.54394 3.69538 2.98758C2.22611 2.43232 1.59763 4.7825 3.04924 5.3315C4.4843 5.87425 5.96976 6.1907 7.48172 6.39528C7.47657 6.42399 7.47179 6.45269 7.46627 6.48139C5.70041 6.82028 3.96878 7.299 2.26401 7.88627C0.791053 8.39332 1.42395 10.7424 2.91015 10.2302C4.31209 9.74706 5.73132 9.33752 7.173 9.01849C7.17153 9.54909 7.22525 10.072 7.36765 10.5746C7.70618 11.7661 8.44615 12.7257 9.27738 13.6081C8.77033 13.9525 8.26033 14.2907 7.72458 14.5825C6.77303 15.1009 5.71403 15.7908 5.3479 16.8741C4.66828 18.8854 6.76603 19.6824 7.83129 20.9103C8.85974 22.0966 10.5719 20.3698 9.55004 19.1912C9.03894 18.6021 8.34423 18.2396 7.80259 17.6888C7.54207 17.4228 7.57629 17.663 7.86109 17.4044C8.27468 17.0279 8.7545 16.8072 9.23396 16.5275C10.7393 15.6503 12.1519 14.6042 13.6532 13.7119C15.8128 12.4299 18.0025 11.1965 20.2206 10.0168C21.6056 9.28085 20.3781 7.18272 18.9945 7.91828Z" fill="white"/>
<path id="Vector_2" d="M12.3901 4.60678C13.4434 4.60678 14.2972 3.75292 14.2972 2.69963C14.2972 1.64634 13.4434 0.79248 12.3901 0.79248C11.3368 0.79248 10.4829 1.64634 10.4829 2.69963C10.4829 3.75292 11.3368 4.60678 12.3901 4.60678Z" fill="white"/>
</g>
</g>
</g>
<defs>
<clipPath id="clip0_1_298">
<rect width="20.5172" height="20.5172" fill="white" transform="translate(0.869026 0.792236)"/>
</clipPath>
</defs>
</svg>
