<svg width="40" height="40" viewBox="0 0 40 40" fill="none" xmlns="http://www.w3.org/2000/svg">
<g id="dancer-balance-posture-on-one-leg">
<g id="Group">
<g id="Group_2">
<path id="Vector" d="M36.7752 16.2266C35.8933 12.4958 34.352 8.2404 31.501 5.556C31.4174 5.47652 31.331 5.40602 31.2432 5.34036C32.8536 3.75073 30.2991 1.2633 28.5505 2.81077C25.1563 5.81725 21.2044 8.02546 17.0692 9.84248C16.913 9.89086 16.761 9.9503 16.6131 10.0187C13.08 9.87082 8.75269 9.11678 6.28876 6.58373C4.62449 4.87246 2.01265 7.48913 3.67554 9.19764C6.31019 11.9076 10.3976 13.1054 14.2791 13.5387C14.2749 13.8947 14.3219 14.2534 14.4353 14.6065C15.951 19.3305 19.209 23.9508 24.045 25.6192C24.3622 25.7298 24.685 25.7796 25.005 25.7879C25.005 29.7067 25.005 33.6241 25.005 37.5415C25.005 40.8189 30.0883 40.8189 30.0883 37.5415C30.0883 32.5963 30.0883 27.6498 30.0883 22.7061C33.3671 21.4399 37.4919 19.251 36.7752 16.2266ZM26.9637 18.432C26.6996 18.2772 26.4197 18.1438 26.1218 18.0415C26.408 18.1984 26.3375 18.1632 25.9069 17.9358C25.683 17.8197 25.5911 17.7824 25.5558 17.7747C25.5316 17.743 25.4556 17.6669 25.2524 17.4948C24.7921 17.1071 24.2399 16.5341 23.9399 16.1354C23.0297 14.9258 22.3627 13.6244 22.0247 12.5732C21.9301 12.2822 21.8063 12.0078 21.6619 11.7493C23.633 10.7576 25.5351 9.64896 27.3466 8.39868C27.4737 8.65786 27.6555 8.91082 27.9085 9.14857C29.7573 10.8903 30.7981 13.5546 31.4907 16.0683C30.1547 17.1589 28.612 17.8653 26.9637 18.432Z" fill="white"/>
<path id="Vector_2" d="M15.4989 8.69736C17.9006 8.69736 19.8476 6.75039 19.8476 4.34868C19.8476 1.94697 17.9006 0 15.4989 0C13.0972 0 11.1503 1.94697 11.1503 4.34868C11.1503 6.75039 13.0972 8.69736 15.4989 8.69736Z" fill="white"/>
</g>
</g>
</g>
</svg>
