<svg width="24" height="24" viewBox="0 0 24 24" fill="none" xmlns="http://www.w3.org/2000/svg">
<g id="Frame" clip-path="url(#clip0_1_1151)">
<path id="Vector" d="M10.076 11.0005C10.676 11.0005 11.162 11.4505 11.151 12.0005C11.151 12.5505 10.677 13.0005 10.076 13.0005C9.486 13.0005 9 12.5505 9 12.0005C9 11.4505 9.475 11.0005 10.076 11.0005ZM13.924 11.0005C14.525 11.0005 15 11.4505 15 12.0005C15 12.5505 14.525 13.0005 13.924 13.0005C13.334 13.0005 12.849 12.5505 12.849 12.0005C12.849 11.4505 13.323 11.0005 13.924 11.0005ZM18.891 2.00049C20.054 2.00049 21 2.96649 21 4.16349V23.0005L18.789 21.0055L17.544 19.8295L16.227 18.5795L16.773 20.5225H5.109C3.946 20.5225 3 19.5565 3 18.3595V4.16349C3 2.96649 3.946 2.00049 5.109 2.00049H18.89H18.891ZM14.921 15.7135C17.194 15.6405 18.069 14.1175 18.069 14.1175C18.069 10.7365 16.587 7.99549 16.587 7.99549C15.107 6.86249 13.697 6.89349 13.697 6.89349L13.553 7.06149C15.302 7.60749 16.114 8.39549 16.114 8.39549C15.1591 7.85748 14.1066 7.51483 13.018 7.38749C12.3274 7.30949 11.6299 7.31621 10.941 7.40749C10.879 7.40749 10.827 7.41849 10.766 7.42849C10.406 7.46049 9.531 7.59649 8.431 8.09049C8.051 8.26849 7.824 8.39549 7.824 8.39549C7.824 8.39549 8.678 7.56549 10.529 7.01949L10.426 6.89349C10.426 6.89349 9.017 6.86249 7.536 7.99649C7.536 7.99649 6.055 10.7365 6.055 14.1175C6.055 14.1175 6.919 15.6395 9.192 15.7135C9.192 15.7135 9.572 15.2415 9.882 14.8425C8.575 14.4425 8.082 13.6025 8.082 13.6025C8.082 13.6025 8.184 13.6765 8.369 13.7815C8.379 13.7915 8.389 13.8025 8.41 13.8125C8.441 13.8345 8.472 13.8445 8.503 13.8655C8.76 14.0125 9.017 14.1275 9.253 14.2225C9.675 14.3905 10.179 14.5585 10.766 14.6745C11.6453 14.8468 12.5494 14.8502 13.43 14.6845C13.9429 14.5929 14.4433 14.4416 14.921 14.2335C15.281 14.0965 15.682 13.8965 16.104 13.6135C16.104 13.6135 15.59 14.4745 14.242 14.8635C14.551 15.2625 14.922 15.7135 14.922 15.7135H14.921Z" fill="white"/>
</g>
<defs>
<clipPath id="clip0_1_1151">
<rect width="24" height="24" fill="white"/>
</clipPath>
</defs>
</svg>
