<svg width="39" height="38" viewBox="0 0 39 38" fill="none" xmlns="http://www.w3.org/2000/svg">
<g id="gymnast-girl" clip-path="url(#clip0_1_1024)">
<g id="Group">
<g id="Group_2">
<path id="Vector" d="M24.9901 5.90354C24.9901 5.90354 27.4674 10.2725 27.4674 7.85649C27.4674 5.4417 25.5078 3.48389 23.0936 3.48389C20.6788 3.48389 18.7198 5.4417 18.7198 7.85649C18.7204 10.2725 24.9901 5.90354 24.9901 5.90354Z" fill="white"/>
<path id="Vector_2" d="M28.1137 2.69339C28.3498 2.56108 28.581 2.43667 28.788 2.34867C28.9895 2.26007 29.1958 2.22062 29.2171 2.26857C29.2292 2.28799 29.1661 2.3153 29.1066 2.31105C29.0465 2.30741 29.0229 2.29588 29.0295 2.32622C29.0295 2.34685 29.0605 2.42514 29.0702 2.46459L29.1042 2.55077C29.0975 2.54348 29.1187 2.59628 29.1236 2.6151L29.177 2.78078L29.6437 4.26036C29.9945 5.29571 30.477 6.45789 31.4085 7.38764C31.8722 7.84341 32.4505 8.21178 33.0659 8.38839C33.6813 8.56499 34.3119 8.56803 34.8829 8.39931C34.378 8.07888 33.9453 7.76755 33.6115 7.40948C33.2747 7.05688 33.0259 6.68547 32.8207 6.28129C32.4105 5.47898 32.1532 4.54924 31.8145 3.5321C31.6404 3.02353 31.4553 2.49069 31.1803 1.93721L31.0711 1.72905L31.0049 1.60767L30.9491 1.51299C30.832 1.3109 30.7155 1.161 30.5352 0.977723C30.3598 0.804761 30.1159 0.619661 29.8027 0.518918C29.4908 0.415748 29.1461 0.423637 28.8912 0.49525C28.6278 0.563828 28.4372 0.680349 28.277 0.79323C28.118 0.908538 27.9863 1.02567 27.8765 1.14886C27.6501 1.39162 27.482 1.63923 27.329 1.88562C27.1785 2.13444 27.0444 2.37902 26.9212 2.62966C26.8581 2.75407 26.7944 2.87545 26.7234 2.99137C26.6572 3.11578 26.588 3.22684 26.4794 3.33122C26.792 3.35974 27.0905 3.20924 27.3564 3.09272C27.6276 2.96709 27.8728 2.82326 28.1137 2.69339Z" fill="white"/>
<path id="Vector_3" d="M36.9536 32.1774C33.7129 30.4666 30.4157 28.876 27.0408 27.4692C26.7301 29.1995 26.2658 30.9054 25.7712 32.5373C28.6812 33.7784 31.5287 35.1597 34.341 36.6465C37.2905 38.2026 39.9055 33.7359 36.9536 32.1774Z" fill="white"/>
<path id="Vector_4" d="M24.8469 17.5209C24.8032 17.4456 24.7583 17.377 24.7104 17.3097C24.5508 15.5072 23.5597 13.9354 21.5813 13.3916C20.7595 13.1659 19.814 13.2278 18.9425 13.5227C18.8928 13.4863 18.8454 13.4499 18.7914 13.4171C14.9935 11.0266 11.3516 8.44796 7.9294 5.54037C5.40294 3.39443 1.7234 7.03695 4.27049 9.20049C7.95853 12.3332 11.8675 15.1559 15.9542 17.7418C15.638 19.4866 15.2266 21.2107 14.7623 22.9209C10.9972 21.7436 7.33769 20.1517 3.33892 20.0103C1.96615 19.9624 0.701405 21.2235 0.75117 22.5993C0.879222 26.1386 1.99589 29.3636 3.51978 32.5291C4.96659 35.5362 9.4284 32.9097 7.98887 29.9177C7.31645 28.5182 6.74294 27.0884 6.37031 25.6052C9.9485 26.416 13.3841 28.1632 16.9708 28.8435C17.0084 28.8508 17.0436 28.8545 17.0806 28.8581C18.0874 29.2586 19.2314 29.7187 19.4517 29.7933C19.9506 28.1347 20.3778 26.4579 20.5902 24.7865C20.8154 24.5692 21.0618 24.3945 21.3155 24.2543C21.1947 27.6838 19.9688 31.1709 18.945 34.3801C17.9284 37.5699 22.9249 38.9227 23.936 35.7565C25.7694 30.0142 28.1053 23.1564 24.8469 17.5209Z" fill="white"/>
</g>
</g>
</g>
<defs>
<clipPath id="clip0_1_1024">
<rect width="37.5" height="37.5" fill="white" transform="translate(0.75 0.25)"/>
</clipPath>
</defs>
</svg>
