<svg width="39" height="38" viewBox="0 0 39 38" fill="none" xmlns="http://www.w3.org/2000/svg">
<g id="man-doing-yoga-" clip-path="url(#clip0_1_1060)">
<g id="Group">
<g id="Group_2">
<path id="Vector" d="M29.6257 19.6659C29.4487 14.6275 27.9592 9.74227 24.947 5.6655C24.6764 5.3002 24.3682 4.97694 24.0324 4.70014C23.0037 3.10897 21.7031 1.7149 20.0128 0.807904C17.4996 -0.540348 14.702 0.641569 14.0367 3.42156C13.414 6.02516 13.8848 9.22444 13.8534 11.8707C13.8339 13.61 13.8138 15.3506 13.7944 17.0899C15.4602 16.6737 17.2278 16.4917 19.0957 16.5633C19.1158 14.8039 19.1353 13.0457 19.156 11.2876C20.4057 13.3577 21.2255 15.5753 21.5387 17.9793C16.8932 17.1595 12.2214 17.7307 8.24696 20.5986C6.05385 22.1803 8.16536 25.8567 10.3836 24.2561C14.0913 21.5803 18.2 21.3863 22.5191 22.5274C22.7457 22.5877 22.9566 22.6015 23.16 22.5965C25.4962 24.3873 29.7587 23.4294 29.6257 19.6659Z" fill="white"/>
<path id="Vector_2" d="M13.7184 23.8276C13.6751 27.6143 13.6324 31.403 13.5885 35.191C13.5502 38.6062 18.8453 38.6044 18.8836 35.191L18.7888 22.9017C16.9497 22.8421 15.2744 23.1528 13.7184 23.8276Z" fill="white"/>
<path id="Vector_3" d="M27.4445 24.1602C25.1038 24.1602 23.2083 26.057 23.2083 28.3951C23.2083 30.7351 25.1045 32.6319 27.4445 32.6319C29.7826 32.6319 31.6781 30.7351 31.6781 28.3951C31.6781 26.057 29.7826 24.1602 27.4445 24.1602Z" fill="white"/>
</g>
</g>
</g>
<defs>
<clipPath id="clip0_1_1060">
<rect width="37.5" height="37.5" fill="white" transform="translate(0.75 0.25)"/>
</clipPath>
</defs>
</svg>
