<svg width="39" height="38" viewBox="0 0 39 38" fill="none" xmlns="http://www.w3.org/2000/svg">
<g id="man-doing-yoga" clip-path="url(#clip0_1_1037)">
<g id="Group">
<g id="Group_2">
<path id="Vector" d="M34.0347 33.5514C36.3627 33.5514 38.25 31.6641 38.25 29.336C38.25 27.0079 36.3627 25.1206 34.0347 25.1206C31.7066 25.1206 29.8193 27.0079 29.8193 29.336C29.8193 31.6641 31.7066 33.5514 34.0347 33.5514Z" fill="white"/>
<path id="Vector_2" d="M24.8154 24.8829H14.6176C14.2048 24.8829 13.8076 24.9449 13.4292 25.0542V6.99819C13.4292 5.58992 12.288 4.44873 10.8804 4.44873C9.47212 4.44873 8.33094 5.58992 8.33094 6.99819V29.4307C6.46201 29.4307 4.59173 29.4307 2.7228 29.4307C0.092401 29.4307 0.092401 33.5099 2.7228 33.5099C6.49843 33.5099 10.2741 33.5099 14.0497 33.5099C14.2358 33.5348 14.4254 33.5517 14.6183 33.5517H24.8168C27.2091 33.5517 29.1495 31.6113 29.1495 29.2183C29.1475 26.8246 27.2071 24.8829 24.8154 24.8829Z" fill="white"/>
</g>
</g>
</g>
<defs>
<clipPath id="clip0_1_1037">
<rect width="37.5" height="37.5" fill="white" transform="translate(0.75 0.25)"/>
</clipPath>
</defs>
</svg>
