<svg width="22" height="22" viewBox="0 0 22 22" fill="none" xmlns="http://www.w3.org/2000/svg">
<g id="stretching" clip-path="url(#clip0_1_307)">
<g id="Group">
<g id="Group_2">
<path id="Vector" d="M13.3561 4.26851C14.2869 4.26851 15.0415 3.51393 15.0415 2.58311C15.0415 1.65229 14.2869 0.897705 13.3561 0.897705C12.4253 0.897705 11.6707 1.65229 11.6707 2.58311C11.6707 3.51393 12.4253 4.26851 13.3561 4.26851Z" fill="white"/>
<path id="Vector_2" d="M8.12684 5.88477C7.75158 6.05151 7.39116 6.22412 7.05076 6.39501C6.01957 6.91285 6.92579 8.45602 7.95422 7.93991C8.01464 7.90987 8.07609 7.88225 8.1365 7.85291C8.10612 7.20181 8.0937 6.54381 8.12684 5.88477Z" fill="white"/>
<path id="Vector_3" d="M15.6877 5.8836C15.7422 5.57428 15.6217 5.25736 15.2306 5.08958C13.7444 4.45125 12.0438 4.58899 10.4247 5.04159C10.425 5.10718 10.4219 5.17312 10.4116 5.23975C10.3273 5.78245 10.3097 6.25023 10.3204 6.80916L13.3563 6.7011C13.3563 6.7011 13.7817 6.81295 13.4647 6.96416C13.0184 6.98384 10.0725 7.12573 10.0725 7.12573C10.0363 6.37659 10.0339 5.62606 10.1478 4.89107C10.3225 3.76252 8.59876 3.27782 8.42235 4.41534C8.19381 5.88809 8.30428 7.3484 8.39059 8.82805C8.42787 9.47673 9.13076 9.98008 9.73663 9.60067C10.1733 9.3269 10.5942 9.01965 10.9953 8.68858L10.994 9.26683L10.9815 15.5034V20.4505C10.9815 20.9832 11.3709 21.4154 11.9188 21.4154C12.466 21.4154 12.9107 20.9832 12.9107 20.4505V13.3795H13.7862C13.7862 15.0363 13.7862 18.8176 13.7862 20.4747C13.7862 21.6284 15.5758 21.6284 15.5758 20.4747C15.5758 18.8176 15.5758 17.1608 15.5758 15.5048C15.9407 8.03333 15.9421 8.05577 15.6877 5.8836Z" fill="white"/>
</g>
</g>
</g>
<defs>
<clipPath id="clip0_1_307">
<rect width="20.5172" height="20.5172" fill="white" transform="translate(0.972351 0.896973)"/>
</clipPath>
</defs>
</svg>
