<svg width="39" height="38" viewBox="0 0 39 38" fill="none" xmlns="http://www.w3.org/2000/svg">
<g id="person-practicing-a-strengthen-posture" clip-path="url(#clip0_1_1072)">
<g id="Group">
<g id="Group_2">
<path id="Vector" d="M35.1481 16.1652C36.8612 16.1652 38.25 14.7765 38.25 13.0633C38.25 11.3502 36.8612 9.96143 35.1481 9.96143C33.435 9.96143 32.0462 11.3502 32.0462 13.0633C32.0462 14.7765 33.435 16.1652 35.1481 16.1652Z" fill="white"/>
<path id="Vector_2" d="M7.86916 25.5456C11.0528 23.989 14.2364 22.4338 17.4207 20.8771C18.4598 22.4247 20.3211 22.5888 21.8762 21.7895C23.7696 20.8168 25.6652 19.8427 27.5571 18.87C27.6365 20.6489 27.7128 22.4292 27.7899 24.2081C27.8884 26.4404 31.3491 26.29 31.2506 24.0577C31.146 21.6559 31.043 19.254 30.9376 16.853C31.74 15.7994 31.7622 14.1488 31.0659 13.0708C30.0329 11.476 28.148 11.3004 26.573 12.1081C23.8307 13.5175 21.0883 14.926 18.3475 16.3346C18.0353 16.4949 17.7765 16.7163 17.5658 16.9751C13.708 18.8609 9.85108 20.7466 5.9926 22.6331C3.9893 23.6111 5.88342 26.5152 7.86916 25.5456Z" fill="white"/>
<path id="Vector_3" d="M37.7644 26.0356H0.75V28.0412H37.7644V26.0356Z" fill="white"/>
</g>
</g>
</g>
<defs>
<clipPath id="clip0_1_1072">
<rect width="37.5" height="37.5" fill="white" transform="translate(0.75 0.25)"/>
</clipPath>
</defs>
</svg>
