<svg width="21" height="22" viewBox="0 0 21 22" fill="none" xmlns="http://www.w3.org/2000/svg">
<g id="stretching" clip-path="url(#clip0_1_560)">
<g id="Group">
<g id="Group_2">
<path id="Vector" d="M12.4515 4.30908C13.3696 4.30908 14.1139 3.56482 14.1139 2.64673C14.1139 1.72864 13.3696 0.984375 12.4515 0.984375C11.5334 0.984375 10.7892 1.72864 10.7892 2.64673C10.7892 3.56482 11.5334 4.30908 12.4515 4.30908Z" fill="white"/>
<path id="Vector_2" d="M7.2938 5.90332C6.92367 6.06778 6.56818 6.23804 6.23244 6.40659C5.21535 6.91735 6.10918 8.43941 7.12355 7.93036C7.18314 7.90073 7.24375 7.87349 7.30334 7.84455C7.27337 7.20235 7.26111 6.55335 7.2938 5.90332Z" fill="white"/>
<path id="Vector_3" d="M14.7512 5.90128C14.805 5.59618 14.6862 5.2836 14.3004 5.11811C12.8345 4.48851 11.1572 4.62437 9.56023 5.07078C9.56057 5.13548 9.5575 5.20051 9.54729 5.26623C9.4642 5.80151 9.44684 6.26289 9.45739 6.81417L12.4518 6.70759C12.4518 6.70759 12.8713 6.81792 12.5587 6.96706C12.1185 6.98647 9.21291 7.12642 9.21291 7.12642C9.17716 6.38752 9.17477 5.64726 9.28714 4.92232C9.45944 3.8092 7.75929 3.33113 7.58529 4.4531C7.35987 5.9057 7.46884 7.34604 7.55396 8.80546C7.59074 9.44527 8.28401 9.94173 8.8816 9.56751C9.31234 9.29749 9.72742 8.99444 10.1231 8.66789L10.1217 9.23824L10.1095 15.3895V20.269C10.1095 20.7944 10.4936 21.2207 11.0339 21.2207C11.5736 21.2207 12.0122 20.7944 12.0122 20.269V13.2947H12.8757C12.8757 14.9288 12.8757 18.6584 12.8757 20.2928C12.8757 21.4308 14.6409 21.4308 14.6409 20.2928C14.6409 18.6584 14.6409 17.0243 14.6409 15.3909C15.0008 8.02161 15.0022 8.04374 14.7512 5.90128Z" fill="white"/>
</g>
</g>
</g>
<defs>
<clipPath id="clip0_1_560">
<rect width="20.2366" height="20.2366" fill="white" transform="translate(0.236984 0.984375)"/>
</clipPath>
</defs>
</svg>
