<svg width="39" height="38" viewBox="0 0 39 38" fill="none" xmlns="http://www.w3.org/2000/svg">
<g id="stretching" clip-path="url(#clip0_1_1048)">
<g id="Group">
<g id="Group_2">
<path id="Vector" d="M23.3841 6.41093C25.0854 6.41093 26.4646 5.03176 26.4646 3.33046C26.4646 1.62917 25.0854 0.25 23.3841 0.25C21.6828 0.25 20.3036 1.62917 20.3036 3.33046C20.3036 5.03176 21.6828 6.41093 23.3841 6.41093Z" fill="white"/>
<path id="Vector_2" d="M13.8265 9.36328C13.1407 9.66805 12.4819 9.98354 11.8598 10.2959C9.97502 11.2424 11.6314 14.0628 13.5111 13.1195C13.6215 13.0646 13.7338 13.0142 13.8442 12.9605C13.7887 11.7705 13.766 10.5678 13.8265 9.36328Z" fill="white"/>
<path id="Vector_3" d="M27.6457 9.36194C27.7454 8.79657 27.5252 8.21733 26.8103 7.91067C24.0939 6.74398 20.9857 6.99575 18.0264 7.82297C18.027 7.94285 18.0213 8.06337 18.0024 8.18515C17.8485 9.17706 17.8163 10.032 17.8358 11.0536L23.3847 10.8561C23.3847 10.8561 24.1621 11.0605 23.5828 11.3369C22.767 11.3729 17.3828 11.6322 17.3828 11.6322C17.3165 10.263 17.3121 8.89122 17.5203 7.54786C17.8396 5.48517 14.6891 4.59927 14.3667 6.67836C13.949 9.37014 14.1509 12.0392 14.3086 14.7436C14.3768 15.9292 15.6615 16.8492 16.7688 16.1557C17.567 15.6554 18.3362 15.0938 19.0694 14.4887L19.0669 15.5456L19.0442 26.9443V35.9863C19.0442 36.9599 19.7559 37.7499 20.7573 37.7499C21.7574 37.7499 22.5701 36.9599 22.5701 35.9863V23.0625H24.1703C24.1703 26.0906 24.1703 33.0017 24.1703 36.0305C24.1703 38.1392 27.4413 38.1392 27.4413 36.0305C27.4413 33.0017 27.4413 29.9737 27.4413 26.9468C28.1082 13.2911 28.1108 13.3321 27.6457 9.36194Z" fill="white"/>
</g>
</g>
</g>
<defs>
<clipPath id="clip0_1_1048">
<rect width="37.5" height="37.5" fill="white" transform="translate(0.75 0.25)"/>
</clipPath>
</defs>
</svg>
