<svg width="39" height="38" viewBox="0 0 39 38" fill="none" xmlns="http://www.w3.org/2000/svg">
<g id="yoga-posture-" clip-path="url(#clip0_1_1084)">
<g id="Group">
<g id="Group_2">
<path id="Vector" d="M37.4811 24.8507C32.6966 20.9674 28.8242 16.2508 25.5687 11.0397C25.3208 10.644 25.0118 10.3719 24.6742 10.2022C23.5252 9.2265 21.772 8.93077 20.3564 10.2519C17.6154 12.808 14.8271 15.2557 11.8516 17.5367C11.4838 17.8185 11.1644 18.1452 10.9099 18.5027C10.7129 18.5779 10.5232 18.6809 10.3542 18.8257C7.84891 20.9771 4.9146 23.1096 1.63123 25.1652C0.752509 25.7155 0.48647 26.8736 1.03733 27.7535C1.39367 28.3219 2.00453 28.634 2.62993 28.634C2.97051 28.634 3.31473 28.5419 3.6244 28.3474C6.51386 26.5378 9.1488 24.6653 11.4886 22.7642C12.5055 23.555 14.0278 23.8514 15.0829 23.0418C17.9893 20.8153 20.7624 18.4906 23.4658 16.0423C26.5268 20.5056 30.0774 24.6131 34.2946 28.0371C36.5296 29.8509 39.7378 26.6833 37.4811 24.8507Z" fill="white"/>
<path id="Vector_2" d="M8.99732 18.6516C10.7856 18.6516 12.2352 17.202 12.2352 15.4137C12.2352 13.6254 10.7856 12.1758 8.99732 12.1758C7.20907 12.1758 5.7594 13.6254 5.7594 15.4137C5.7594 17.202 7.20907 18.6516 8.99732 18.6516Z" fill="white"/>
</g>
</g>
</g>
<defs>
<clipPath id="clip0_1_1084">
<rect width="37.5" height="37.5" fill="white" transform="translate(0.75 0.25)"/>
</clipPath>
</defs>
</svg>
